<svg width="130" height="130" xmlns="http://www.w3.org/2000/svg" version="1.1" xml:space="preserve" clip-rule="evenodd">
 <g id="Layer_1">
  <title>Layer 1</title>
  <ellipse ry="65" rx="64" id="svg_1" cy="65.10695" cx="64.65241" stroke-width="0" stroke="#000" fill="#7f0000"/>
  <text stroke="#000" font-weight="bold" transform="matrix(0.804356 0 0 0.751253 -217.77 -9.91319)" xml:space="preserve" text-anchor="start" font-family="Noto Sans JP" font-size="90" id="svg_3" y="123.1345" x="326.0819" stroke-width="0" fill="#ffffff">10</text>
  <g stroke="null" id="svg_59">
   <g stroke="null" id="svg_15">
    <path stroke="null" d="m28.052,56.05279c0.51667,0.28403 0.79275,0.73828 0.82812,1.36218c-0.83452,2.7366 -1.66264,5.46094 -2.48438,8.173c-0.44977,0.04088 -0.72576,0.26767 -0.82812,0.68108c5.37313,0.897 10.61801,0.897 15.73443,0c-1.6387,-4.48289 -3.01895,-9.023 -4.14065,-13.62168c-2.9873,-0.67373 -6.0238,-0.9008 -9.10938,-0.68108c-1.09488,0.11578 -2.06097,-0.11128 -2.89846,-0.68108c-0.13805,-1.13517 -0.27602,-2.27025 -0.41407,-3.40542c0.36098,-3.35577 0.49895,-6.76119 0.41407,-10.21626c5.18424,-6.07568 10.70503,-6.30268 16.56255,-0.68108c0.76435,1.04505 1.17842,2.18016 1.2422,3.40542c-0.75791,2.47008 -0.75791,4.96736 0,7.49193c0.37521,2.16101 -0.45291,3.86372 -2.48438,5.10814c2.65298,6.79721 4.58527,13.72181 5.79688,20.77307c0.17218,1.60055 1.13834,2.73524 2.89846,3.40542c0.64362,1.99489 0.50557,3.92508 -0.41407,5.78922c-10.13835,0.55916 -20.21394,0.44543 -30.22666,-0.34054c-1.10656,-2.99677 -0.27843,-5.49363 2.48438,-7.49193c0.40004,-6.34224 2.05633,-12.47202 4.96877,-18.38927c0.55551,-0.51219 1.24558,-0.73965 2.07033,-0.68108l0.00003,0l-0.00003,-0.00004l-0.00001,-0.00001z" fill="#101b23" id="svg_16"/>
   </g>
   <g stroke="null" id="svg_17">
    <path stroke="null" d="m30.53636,36.30134c7.88214,-0.79925 10.36649,1.69808 7.45315,7.49193c-2.93545,0.87955 -5.83391,0.87955 -8.69535,0c-1.91365,-2.81008 -1.49956,-5.30735 1.2422,-7.49193z" fill="#ee9003" id="svg_18"/>
   </g>
   <g stroke="null" id="svg_19">
    <path stroke="null" d="m38.81764,47.19869c-3.20708,1.31463 -6.7956,1.7687 -10.76565,1.36218c3.20708,-1.31463 6.7956,-1.7687 10.76565,-1.36218z" fill="#ffe12f" id="svg_20"/>
   </g>
   <g stroke="null" id="svg_21">
    <path stroke="null" d="m38.81764,47.19869c0.74863,0.48288 1.02465,1.16398 0.82812,2.04324c-4.02745,0.2176 -7.89205,-0.00947 -11.5938,-0.68108c3.97005,0.40654 7.55857,-0.04755 10.76565,-1.36218l0,0.00002l0.00003,0l0,-0.00001z" fill="#c0a82a" id="svg_22"/>
   </g>
   <g stroke="null" id="svg_23">
    <path stroke="null" d="m28.052,51.96629c3.08559,-0.21972 6.1221,0.00735 9.10938,0.68108c1.1217,4.59869 2.50194,9.13878 4.14065,13.62168c-5.12612,0.22 -10.09486,-0.00682 -14.90631,-0.68108c0.82174,-2.71208 1.64988,-5.43642 2.48438,-8.173c-0.03537,-0.62387 -0.31148,-1.07816 -0.82812,-1.36218c0,-1.36218 0,-2.72435 0,-4.0865l0.00001,0z" fill="#f49205" id="svg_24"/>
   </g>
   <g stroke="null" id="svg_45">
    <path stroke="null" d="m26.39574,65.58797c4.81142,0.67427 9.78019,0.90107 14.90631,0.68108c-5.11641,0.897 -10.36128,0.897 -15.73443,0c0.10236,-0.41343 0.37838,-0.64022 0.82812,-0.68108z" fill="#473817" id="svg_46"/>
   </g>
   <g stroke="null" id="svg_47">
    <path stroke="null" d="m42.13017,69.67445c-5.52089,0 -11.04168,0 -16.56255,0c0.23562,1.30428 -0.04052,2.43897 -0.82812,3.40542c0,-1.36218 0,-2.72435 0,-4.0865c5.95141,-0.22136 11.74831,0.00613 17.39067,0.68108z" fill="#8a7e27" id="svg_48"/>
   </g>
   <g stroke="null" id="svg_49">
    <path stroke="null" d="m42.13017,69.67445c-0.18333,1.89274 0.09276,3.70918 0.82812,5.44866c-6.22676,0.22136 -12.29969,-0.00546 -18.21881,-0.68108c0,-0.45429 0,-0.90788 0,-1.36218c0.78763,-0.96644 1.06374,-2.10114 0.82812,-3.40542c5.52089,0 11.04168,0 16.56255,0l0.00003,0.00002z" fill="#fbd92e" id="svg_50"/>
   </g>
   <g stroke="null" id="svg_51">
    <path stroke="null" d="m24.73947,74.44205c5.91911,0.67564 11.99202,0.90243 18.21881,0.68108c-6.21906,0.89904 -12.56807,0.89904 -19.04693,0c0.10236,-0.41343 0.37838,-0.64022 0.82812,-0.68108z" fill="#444923" id="svg_52"/>
   </g>
   <g stroke="null" id="svg_53">
    <path stroke="null" d="m21.42697,77.84748c8.00999,-0.11305 16.01525,0 24.0157,0.34054c0.6928,0.68858 0.96891,1.48339 0.82812,2.38381c-8.28127,0 -16.56255,0 -24.84381,0c0,-0.90788 0,-1.81644 0,-2.72435z" fill="#cb820b" id="svg_54"/>
   </g>
  </g>
  <text stroke="#000" xml:space="preserve" text-anchor="start" font-family="'Brygada 1918'" font-size="90" id="svg_4" y="251.97517" x="170.62996" stroke-width="0" fill="#ffffff" transform="matrix(0.44431 0 0 0.336806 -50.4696 21.3388)" font-weight="bold">pont</text>
  <g id="svg_13">
   <g stroke="null" id="svg_5" transform="matrix(1.0748 -0.328499 0.308913 1.14295 -81.467 7.98623)">
    <path stroke="null" d="m109.31402,36.33633c6.56325,0 13.12648,0 19.68973,0c0,6.4317 0,12.8634 0,19.2951c-6.56325,0 -13.12648,0 -19.68973,0c0,-6.4317 0,-12.8634 0,-19.2951z" fill="#00bf00" id="svg_6"/>
   </g>
   <path stroke="null" d="m52.293,26.7158c-0.23491,-0.84352 -0.66393,-1.55188 -1.28713,-2.12505c0.51207,-0.19993 0.79807,-0.62494 0.85807,-1.27503c-0.80548,-2.67566 -1.52057,-5.36737 -2.1452,-8.07517c4.86756,-1.4418 9.73002,-2.9293 14.58743,-4.46261c0.84636,-0.21057 1.70447,-0.28141 2.57424,-0.21251c1.66259,5.50659 3.23574,11.03172 4.71946,16.57537c-5.39941,1.57032 -10.76244,3.27036 -16.08908,5.10012c-1.06783,-1.53176 -1.85446,-3.2318 -2.35972,-5.10012c-0.19603,-0.33894 -0.48207,-0.48064 -0.85807,-0.42501l0,-0.00002l0,0.00002l0,0.00001z" fill="#eaeaf4" id="svg_8"/>
   <g stroke="null" id="svg_9">
    <path stroke="null" d="m64.62139,21.18589c3.08192,0.18568 3.69938,1.52048 1.85245,4.00438c-2.28471,0.44495 -3.21092,-0.50849 -2.77868,-2.86028c0.25856,-0.45407 0.56733,-0.83542 0.92623,-1.1441l0.00002,0l-0.00002,0z" fill="#0c1b23" id="svg_10"/>
   </g>
   <g stroke="null" id="svg_11">
    <path stroke="null" d="m57.65501,23.84953c2.15981,-0.12948 3.08603,0.88753 2.77868,3.05097c-1.35847,1.52548 -2.71691,1.52548 -4.0754,0c-0.26701,-1.35528 0.16521,-2.37227 1.29672,-3.05097z" fill="#121e27" id="svg_12"/>
   </g>
   <g stroke="null" id="svg_41">
    <path stroke="null" d="m54.89456,17.07333c2.89044,0.10961 3.63143,1.44441 2.22293,4.00438c-3.38924,0.20426 -4.13021,-1.13054 -2.22293,-4.00438z" fill="#0f1d25" id="svg_42"/>
   </g>
   <g stroke="null" id="svg_43">
    <path stroke="null" d="m62.06665,14.83637c2.34527,-0.31799 3.39498,0.69901 3.14917,3.05097c-1.12926,1.33843 -2.3642,1.46553 -3.7049,0.38137c-0.3453,-1.26733 -0.16006,-2.41145 0.55573,-3.43233l0,-0.00002l0,0.00001z" fill="#101d26" id="svg_44"/>
   </g>
  </g>
 </g>

</svg>