<svg width="456" height="456" xmlns="http://www.w3.org/2000/svg" clip-rule="evenodd" xml:space="preserve" version="1.1">

  <path stroke="null" d="m367.4227,74.286l-234.86419,0c-3.38927,0 -6.13628,2.92333 -6.13628,6.53016l0,82.53249c0,3.60682 2.74701,6.53016 6.13628,6.53016s6.13628,-2.92333 6.13628,-6.53016l0,-23.11241l37.42724,0l0,21.68085c0,3.60682 2.74701,6.53016 6.13628,6.53016s6.13628,-2.92333 6.13628,-6.53016l0,-21.68085l123.1927,0l0,101.25445c0,3.60682 2.74701,6.53016 6.13628,6.53016s6.13628,-2.92333 6.13628,-6.53016l0,-33.97206l37.42655,0l0,54.22208l-26.28579,0c-3.38927,0 -6.13628,2.92333 -6.13628,6.53016s2.74701,6.53016 6.13628,6.53016l26.28579,0l0,49.42459l-18.64816,0c-3.38927,0 -6.13628,2.92333 -6.13628,6.53016s2.74701,6.53016 6.13628,6.53016l24.78445,0c3.38927,0 6.13628,-2.92333 6.13628,-6.53016l0,-249.93962c0,-3.60682 -2.74769,-6.53016 -6.13628,-6.53016zm-191.30204,52.88993l-37.42587,0l0,-39.82961l37.42587,0l0,39.82961zm67.73298,0l-55.46041,0l0,-39.82961l55.46041,0l0,39.82961zm67.73502,0l-55.46245,0l0,-39.82961l55.46245,0l0,39.82961zm49.69776,67.2824l-37.42655,0l0,-54.22208l37.42655,0l0,54.22208zm0,-67.2824l-37.42519,0l0,-39.82961l37.42519,0l0,39.82961zm-199.6167,220.36454c3.38927,0 6.13628,2.92333 6.13628,6.53016s-2.74701,6.53016 -6.13628,6.53016c-29.10098,0 -52.77613,-25.1948 -52.77613,-56.16299c0,-3.60682 2.74701,-6.53016 6.13628,-6.53016s6.13628,2.92333 6.13628,6.53016c0,23.7676 18.16953,43.10267 40.50356,43.10267zm148.991,-77.8881c-0.28363,-1.7051 -1.19248,-3.22082 -2.5261,-4.2134c-1.33362,-0.99258 -2.98428,-1.38077 -4.58653,-1.0782l-69.96931,13.18511c-2.62156,-7.77234 -6.37901,-15.11804 -11.20963,-21.84338c-1.09089,-1.5179 -2.2302,-2.99226 -3.41791,-4.42092l43.06716,-22.26856l11.77007,25.77671c1.48089,3.24331 5.15175,4.59505 8.2008,3.01911c3.04837,-1.57594 4.31858,-5.48388 2.83701,-8.72719l-14.45163,-31.65023c-1.48089,-3.24331 -5.1538,-4.59505 -8.2008,-3.01984l-52.70658,27.25325c-6.19765,-5.2916 -13.15074,-9.5587 -20.55723,-12.58216l11.02758,-34.04171c0.64636,-1.99533 0.34636,-4.20034 -0.80522,-5.91923c-1.15158,-1.71888 -3.01292,-2.73904 -4.9963,-2.73904l-64.93279,0c-1.98338,0 -3.84472,1.02016 -4.9963,2.73904s-1.45089,3.9239 -0.80522,5.91923l9.47578,29.25366c-1.88179,-0.56595 -3.752,-1.18994 -5.60584,-1.86908c-13.85436,-5.07829 -26.29261,-12.9776 -36.96906,-23.47882c-2.48997,-2.44881 -6.37151,-2.28483 -8.67125,0.36279c-2.30042,2.64834 -2.14702,6.78048 0.3409,9.22784c11.06576,10.88432 23.82037,19.26614 37.95428,24.94956c-10.84963,-1.1689 -21.36313,-4.10094 -31.32845,-8.74243c-3.10428,-1.44607 -6.72264,0.06022 -8.08217,3.36376c-1.35885,3.30426 0.05659,7.15488 3.16087,8.60094c8.45784,3.93986 17.26546,6.77685 26.32738,8.48703c-3.287,3.20703 -6.31696,6.72316 -9.03397,10.50557c-10.24555,14.26259 -15.66116,31.31283 -15.66116,49.3085c0,44.80777 34.25546,81.26201 76.36127,81.26201c2.19815,0 4.43108,-0.10231 6.63809,-0.30402c3.37632,-0.30909 5.87856,-3.47187 5.58811,-7.06563c-0.28977,-3.59304 -3.257,-6.25444 -6.63946,-5.9468c-1.85861,0.16978 -3.73768,0.25613 -5.58674,0.25613c-35.33886,0 -64.08871,-30.59524 -64.08871,-68.2017c0,-29.70714 18.37953,-56.23554 44.8835,-65.08536c12.6537,2.2101 25.60262,2.20937 38.257,-0.05079c26.58647,8.7983 45.03486,35.37169 45.03486,65.13615c0,1.58102 -0.05114,3.17511 -0.15204,4.73799c-0.23182,3.59812 2.32088,6.71518 5.70197,6.9626c3.38655,0.2496 6.30946,-2.46913 6.54196,-6.06724c0.12068,-1.85964 0.18136,-3.75484 0.18136,-5.63335c0,-5.02169 -0.42136,-9.96937 -1.25248,-14.80387l62.86895,-11.84716l11.09304,66.67074l-27.86486,5.25097c-3.33746,0.62907 -5.56288,4.0175 -4.97243,7.56918c0.59045,3.55168 3.78268,5.91923 7.11263,5.2916l33.90706,-6.39012c3.33746,-0.62907 5.56288,-4.0175 4.97243,-7.56918l-13.23392,-79.53007zm-134.17529,-42.29003c-9.81124,1.5208 -19.79429,1.53386 -29.61098,0.0682l-9.06602,-27.98681l47.72119,0l-9.0442,27.9186zm62.92895,98.13739c-5.88401,0 -11.4694,1.86617 -16.1882,5.34094c-4.59676,-3.36811 -10.161,-5.34094 -16.15138,-5.34094c-15.74502,0 -28.55485,13.63062 -28.55485,30.38555c0,7.52274 2.60247,14.74147 7.32877,20.32693c5.41016,6.39375 13.14665,10.0608 21.22609,10.0608c5.99038,0 11.5553,-1.97356 16.15206,-5.34167c4.71812,3.47477 10.30486,5.34167 16.1882,5.34167c15.74434,0 28.55281,-13.63207 28.55281,-30.38773c-0.00068,-16.75493 -12.80915,-30.38555 -28.55349,-30.38555zm-16.0607,30.33258c0,0.00218 0,0.00435 0,0.00726c0,0.00653 0,0.01306 0,0.01959c0,0.00508 0,0.00943 0,0.01524c0,0.00435 0,0.00798 0,0.01161c0,9.55435 -7.30286,17.32741 -16.27956,17.32741c-4.60699,0 -9.01965,-2.09183 -12.1062,-5.74001c-2.69315,-3.18236 -4.17608,-7.29781 -4.17608,-11.5874c0,-9.55362 7.30422,-17.32524 16.28229,-17.32524c8.85397,0 16.07911,7.56047 16.27547,16.93415c0,0 0,0 0,0.00073c0,0.00798 0,0.01596 0,0.02467c0,0.00435 0,0.00871 0,0.01306c0,0.00435 0,0.00943 0,0.01379c0,0.0058 0,0.01161 0,0.01669c0,0.0029 0,0.00653 0,0.00943c0,0.00653 0,0.01306 0,0.01886c0,0.00218 0,0.00508 0,0.00726c0,0.00653 0,0.01379 0,0.01959c0,0.00218 0,0.00363 0,0.00653c0,0.00653 0,0.01379 0,0.02032c0,0.00145 0,0.00508 0,0.00653c0,0.00653 0,0.01451 0,0.02104c0,0.00073 0,0.00363 0,0.00435c0,0.00726 0,0.01524 0,0.02249c0,0.00073 0,0.0029 0,0.00435c0,0.00726 0,0.01524 0,0.02249c0,0.00145 0,0.0029 0,0.00363c0,0.00726 0,0.01524 0,0.02249c0,0.00145 0,0.00363 0,0.00508c0,0.00726 0,0.01451 0,0.02177c0,0.00073 0,0.0029 0,0.00435c0,0.00726 0,0.01524 0,0.02249c0,0.00145 0,0.00363 0,0.00508c0.00409,0.0058 0.00409,0.01306 0.00409,0.02032zm16.0607,17.38038c-2.72383,0 -5.33584,-0.70235 -7.66285,-2.02725c2.49951,-4.55297 3.84677,-9.74154 3.87472,-15.12675c0,-0.00943 0,-0.01814 0,-0.02685c0.00068,-0.0058 0.00068,-0.01161 0.00068,-0.01741c0,-0.01016 0,-0.02177 0,-0.0312c0,-0.00435 0,-0.00871 0,-0.01306c0,-0.01233 0,-0.02394 0,-0.03628c0,-0.00218 0,-0.00435 0,-0.00653c0,-0.01379 0,-0.02757 0,-0.04136c0,0 0,0 0,-0.00073c0,0 0,0 0,-0.00073c0,-0.01524 0,-0.02975 0,-0.04499l0,-0.00073c0,-0.01524 0,-0.02975 0,-0.04499c0,-0.00073 0,-0.00073 0,-0.00145c0,-0.01524 0,-0.03047 0,-0.04571c-0.00068,-0.01524 -0.00068,-0.03047 -0.00068,-0.04571l0,0c0,-0.03047 0,-0.06095 -0.00068,-0.09142l0,-0.00073c0,-0.01524 0,-0.03047 0,-0.04571l0,-0.00073c-0.00068,-0.01524 -0.00068,-0.02975 -0.00068,-0.04499c0,0 0,-0.00145 0,-0.00145c0,-0.01379 -0.00068,-0.0283 -0.00068,-0.04208c0,-0.00145 0,-0.00363 0,-0.00508c0,-0.01233 0,-0.02467 -0.00068,-0.03628c0,-0.00363 0,-0.00871 0,-0.01233c0,-0.01016 0,-0.02104 -0.00068,-0.0312c0,-0.00726 0,-0.01451 0,-0.02177c0,-0.00798 0,-0.01379 -0.00068,-0.02177c-0.08591,-5.25387 -1.42771,-10.30894 -3.86995,-14.75816c2.32633,-1.3249 4.93834,-2.02653 7.66217,-2.02653c8.9767,0 16.28024,7.77161 16.28024,17.32524c0,9.5529 -7.30354,17.32669 -16.28024,17.32669z" id="XMLID_756_"/>

</svg>